<?xml version="1.0" encoding="UTF-8"?>
<svg width="150.65mm" height="135.61mm" version="1.1" viewBox="0 0 533.78973 480.49182" xmlns="http://www.w3.org/2000/svg">
 <g transform="translate(-146.95 -373.96)" stroke="#000">
  <path d="m360.69 592.39c-18.852-4.6283-39.544-2.5135-59.067-2.5135-22.274 0-62.911-1.1832-79.175 15.081-2.8737 2.8737 0.0571 6.8645-3.7702 10.054-27.228 22.69-30.556 30.462-46.5 52.784-11.616 16.263-41.27 31.297-32.676 52.784 9.1258 22.814-14.022 117.25 7.5405 135.73 11.57 9.9168 84.958-24.125 89.229-11.311 7.1181 21.354 52.351-1.8316 72.892 3.7702 34.77 9.4827 110.41 6.0848 143.27-11.311 25.449-13.473 47.793-44.889 76.662-49.013 9.172-1.3103 101.89-2.6946 103.05-5.027 2.7434-5.4868 10.92-13.26 16.338-17.594 7.8632-6.2906 25.535-10.454 31.419-16.338 0.66577-0.66578 0-67.309 0-74.148 0-4.8134 5.091-94.987 2.5135-99.283-6.5462-10.91-63.955 53.778-76.662 49.013-13.04-4.89-23.695-18.76-36.446-25.135-41.625-20.812-94.995-25.828-140.76-20.108-7.6524 0.95654-66.053 19.814-69.121 7.5405" fill="#999" fill-rule="evenodd" stroke-width="1px"/>
  <path d="m389.95 470.23-1.7773-0.88865-3.5546 1.333-1.7773 3.999-2.2216 4.8876-1.7773 5.7763-5.3319 0.44433-2.2216 0.88866-0.88865 2.2216 1.333 2.2216 7.1092 1.7773 0.44433 6.6649 2.2216 7.1092 17.773 0.88866v-5.3319l2.2216-1.7773 1.333-4.8876v-1.7773h4.8876l3.1103-1.7773 1.333-2.666-4.4433-1.333h-4.4433l-1.333-8.8866-1.7773-5.3319-3.5546-3.5546z" fill-rule="evenodd" stroke-width="1px"/>
  <path d="m379.29 504.45-5.3319 6.2206-9.3309 2.2216-8.4422 8.8866-2.2216 10.22 3.1103 16.44 3.1103 3.1103 0.44433 22.216 3.5546 2.2216 48.876 4.8876-0.44433-5.7763 3.999-3.1103-0.88866-14.663 7.1092 3.1103 4.4433-3.1103 6.6649-16.884-0.88866-5.7763-3.1103-3.999h-2.666l-1.7773 2.666-4.8876-9.3309-2.666-5.7763-9.3309-4.8876-4.4433-1.333-6.6649-7.1092z" fill-rule="evenodd" stroke-width="1px"/>
  <path d="m362.85 576.87-1.7773 12.441-1.7773 5.3319 3.5546 6.6649 51.542 11.997v-9.7752l-3.1103-25.771z" fill-rule="evenodd" stroke-width="1px"/>
  <path d="m361.52 602.2-5.3319 7.9979-7.1092 0.44433 4.8876 7.9979v7.5536l5.3319 7.9979-6.2206 5.3319-0.44432 6.2206-3.5546 13.774-1.333 7.9979v7.9979l14.218 2.2216 8.8866-15.551 5.3319-11.997 1.333-4.4433-2.2216-4.4433 3.999-7.5536 2.666-11.997 3.5546 0.44433 1.333-2.2216 1.333 8.4422v10.664l0.88865 3.5546-2.2216 7.1092-2.2216 14.663v6.2206l12.886 3.5546 8.4422-0.88866 2.666-12.441 0.88865-2.2216-2.2216-2.666 1.333-7.9979 5.3319-2.2216 4.4433-34.658z" fill-rule="evenodd" stroke-width="1px"/>
  <path d="m397.13 564.74c56.452-65.521 107.86-139.45 173.43-189.77v2.5135c-69.447 52.039-115.45 127.52-169.66 194.8z" fill-rule="evenodd" stroke-width="1px"/>
  <path d="m571.82 376.23c23.632 35.629 33.932 71.133 33.932 114.36 0 12.3 2.7717 26.377-2.5135 37.702l-35.189 75.405-25.135 25.135c-21.448 21.448-26.289 27.119-54.04 41.473-43.962 22.739-54.803-30-100.54-16.338-106.93 31.94-51.999-90.348-86.716-79.175" fill="none" stroke-width="1px"/>
  <g transform="matrix(.51322 0 0 .51322 248.44 282.84)" fill-rule="evenodd" stroke-width="1px">
   <path d="m104.31 557.2-27.649 20.108-11.311 1.2568 7.5405 8.7972s-4.9935 30.159-3.7702 45.243c0.41884 5.1648 3.7702 15.081 3.7702 15.081v15.081l10.054-6.2838 13.824 1.2568s-11.255-11.414-12.568-18.851c-2.7726-15.709 11.311-46.5 11.311-46.5l5.027 10.054-2.5135-12.568s7.6208-8.4904 8.7972-13.824c1.3654-6.1906-2.5135-18.851-2.5135-18.851z"/>
   <path d="m69.121 613.76-10.054 8.7972v8.7972l8.7973-6.2838z"/>
  </g>
  <g transform="matrix(.27014 -.054671 .048956 .30168 520.8 562.86)" fill-rule="evenodd">
   <path d="m-42.389 306.93c-4.714 0-10 5.286-10 10v100c0 4.714 5.286 10 10 10s10-5.286 10-10v-100c0-4.714-5.286-10-10-10z" stroke-width="1px"/>
   <path d="m-43.444 307.04 1.055-45.051 1.055 45.051z" stroke-width=".82399px"/>
   <path d="m-46.389 424.93c0 110 9 210 29 310h8c-20-100-31-200-31-310z" stroke-width="1px"/>
   <path d="m-7.3886 736.93s-34.925-163.91-10-240c6.6441-20.283 18.909-46.725 40-50 11.876-1.8439 30 20 30 20s-19.939-13.143-30-10c-15.909 4.9695-25.06 24.082-30 40-23.733 76.471 5 239 5 239z" stroke-width="1px"/>
   <path d="m-10.803 737.03s-28.802-135.18-8.247-197.93c5.4794-16.728 15.594-38.534 32.988-41.235 9.7943-1.5206 24.741 16.494 24.741 16.494s-16.443-10.839-24.741-8.247c-13.12 4.0983-20.667 19.861-24.741 32.988-19.573 63.066 4.1235 197.1 4.1235 197.1z" stroke-width=".8247px"/>
   <path d="m-8.6895 730.59s-7.165-138.02-43.262-193.32c-9.6221-14.739-25.036-33.185-42.536-31.292-9.8541 1.0661-19.629 22.335-19.629 22.335s13.078-14.726 21.763-14.369c13.733 0.563 25.103 13.835 32.436 25.46 35.228 55.851 47.031 191.45 47.031 191.45z" stroke-width=".8247px"/>
  </g>
  <g transform="matrix(-.27454 0 0 .3066 553.39 558.83)" fill-rule="evenodd">
   <path d="m-42.389 306.93c-4.714 0-10 5.286-10 10v100c0 4.714 5.286 10 10 10s10-5.286 10-10v-100c0-4.714-5.286-10-10-10z" stroke-width="1px"/>
   <path d="m-43.444 307.04 1.055-45.051 1.055 45.051z" stroke-width=".82399px"/>
   <path d="m-46.389 424.93c0 110 9 210 29 310h8c-20-100-31-200-31-310z" stroke-width="1px"/>
   <path d="m-7.3886 736.93s-34.925-163.91-10-240c6.6441-20.283 18.909-46.725 40-50 11.876-1.8439 30 20 30 20s-19.939-13.143-30-10c-15.909 4.9695-25.06 24.082-30 40-23.733 76.471 5 239 5 239z" stroke-width="1px"/>
   <path d="m-10.803 737.03s-28.802-135.18-8.247-197.93c5.4794-16.728 15.594-38.534 32.988-41.235 9.7943-1.5206 24.741 16.494 24.741 16.494s-16.443-10.839-24.741-8.247c-13.12 4.0983-20.667 19.861-24.741 32.988-19.573 63.066 4.1235 197.1 4.1235 197.1z" stroke-width=".8247px"/>
   <path d="m-8.6895 730.59s-7.165-138.02-43.262-193.32c-9.6221-14.739-25.036-33.185-42.536-31.292-9.8541 1.0661-19.629 22.335-19.629 22.335s13.078-14.726 21.763-14.369c13.733 0.563 25.103 13.835 32.436 25.46 35.228 55.851 47.031 191.45 47.031 191.45z" stroke-width=".8247px"/>
  </g>
  <g transform="matrix(.27454 0 0 .3066 587.21 559.21)" fill-rule="evenodd">
   <path d="m-42.389 306.93c-4.714 0-10 5.286-10 10v100c0 4.714 5.286 10 10 10s10-5.286 10-10v-100c0-4.714-5.286-10-10-10z" stroke-width="1px"/>
   <path d="m-43.444 307.04 1.055-45.051 1.055 45.051z" stroke-width=".82399px"/>
   <path d="m-46.389 424.93c0 110 9 210 29 310h8c-20-100-31-200-31-310z" stroke-width="1px"/>
   <path d="m-7.3886 736.93s-34.925-163.91-10-240c6.6441-20.283 18.909-46.725 40-50 11.876-1.8439 30 20 30 20s-19.939-13.143-30-10c-15.909 4.9695-25.06 24.082-30 40-23.733 76.471 5 239 5 239z" stroke-width="1px"/>
   <path d="m-10.803 737.03s-28.802-135.18-8.247-197.93c5.4794-16.728 15.594-38.534 32.988-41.235 9.7943-1.5206 24.741 16.494 24.741 16.494s-16.443-10.839-24.741-8.247c-13.12 4.0983-20.667 19.861-24.741 32.988-19.573 63.066 4.1235 197.1 4.1235 197.1z" stroke-width=".8247px"/>
   <path d="m-8.6895 730.59s-7.165-138.02-43.262-193.32c-9.6221-14.739-25.036-33.185-42.536-31.292-9.8541 1.0661-19.629 22.335-19.629 22.335s13.078-14.726 21.763-14.369c13.733 0.563 25.103 13.835 32.436 25.46 35.228 55.851 47.031 191.45 47.031 191.45z" stroke-width=".8247px"/>
  </g>
  <g transform="matrix(-.27458 0 0 .27458 597.2 581.56)" fill-rule="evenodd">
   <path d="m-42.389 306.93c-4.714 0-10 5.286-10 10v100c0 4.714 5.286 10 10 10s10-5.286 10-10v-100c0-4.714-5.286-10-10-10z" stroke-width="1px"/>
   <path d="m-43.444 307.04 1.055-45.051 1.055 45.051z" stroke-width=".82399px"/>
   <path d="m-46.389 424.93c0 110 9 210 29 310h8c-20-100-31-200-31-310z" stroke-width="1px"/>
   <path d="m-7.3886 736.93s-34.925-163.91-10-240c6.6441-20.283 18.909-46.725 40-50 11.876-1.8439 30 20 30 20s-19.939-13.143-30-10c-15.909 4.9695-25.06 24.082-30 40-23.733 76.471 5 239 5 239z" stroke-width="1px"/>
   <path d="m-10.803 737.03s-28.802-135.18-8.247-197.93c5.4794-16.728 15.594-38.534 32.988-41.235 9.7943-1.5206 24.741 16.494 24.741 16.494s-16.443-10.839-24.741-8.247c-13.12 4.0983-20.667 19.861-24.741 32.988-19.573 63.066 4.1235 197.1 4.1235 197.1z" stroke-width=".8247px"/>
   <path d="m-8.6895 730.59s-7.165-138.02-43.262-193.32c-9.6221-14.739-25.036-33.185-42.536-31.292-9.8541 1.0661-19.629 22.335-19.629 22.335s13.078-14.726 21.763-14.369c13.733 0.563 25.103 13.835 32.436 25.46 35.228 55.851 47.031 191.45 47.031 191.45z" stroke-width=".8247px"/>
  </g>
  <g transform="matrix(.31266 0 0 .31266 347.12 564.56)" fill-rule="evenodd">
   <path d="m892.61 686.93s-13.108-45.349-30-60c-7.9632-6.9064-30-10-30-10s27.183 2.2814 36 7c14.484 15.539 23.757 40.915 34 63z" stroke-width="1px"/>
   <path d="m891.71 691.12s-0.92367-47.196-13.449-65.72c-5.9043-8.7321-26.39-17.424-26.39-17.424s25.667 9.2392 32.962 16.079c9.9686 18.758 12.358 45.67 16.536 69.653z" stroke-width="1px"/>
   <path d="m891.66 681.86s-0.92021-66.873-13.398-93.119c-5.8822-12.373-26.291-24.688-26.291-24.688s25.57 13.091 32.838 22.782c9.9312 26.579 12.312 64.709 16.474 98.691z" stroke-width="1.1881px"/>
   <path d="m902.99 694.86s0.92021-66.873 13.398-93.119c5.8822-12.373 26.291-24.688 26.291-24.688s-25.57 13.091-32.838 22.782c-9.9312 26.579-12.312 64.709-16.474 98.691z" stroke-width="1.1881px"/>
   <path d="m892.61 696.93 6-160-14-50 18 50v160z" stroke-width="1px"/>
   <g transform="matrix(.33676 0 0 .33676 619.21 433.53)" stroke-width=".3078px">
    <path d="m868.42 317.28 3.078-3.078v-9.234l-4.617-9.8496-4.617 9.8496v9.234l3.078 3.078z"/>
    <path d="m879.78 315.25 1.1266-4.2046-4.617-7.9969-8.9232-6.2215 0.92635 10.838 4.617 7.9969 4.2046 1.1266z"/>
    <path d="m852.48 315.25-1.1266-4.2046 4.617-7.9969 8.9232-6.2215-0.92635 10.838-4.617 7.9969-4.2046 1.1266z"/>
    <path d="m868.42 282.91 3.078 3.078v9.234l-4.617 9.8496-4.617-9.8496v-9.234l3.078-3.078z"/>
    <path d="m879.78 284.93 1.1266 4.2046-4.617 7.9969-8.9232 6.2215 0.92635-10.838 4.617-7.9969 4.2046-1.1266z"/>
    <path d="m852.48 284.93-1.1266 4.2046 4.617 7.9969 8.9232 6.2215-0.92635-10.838-4.617-7.9969-4.2046-1.1266z"/>
    <path d="m886.56 301.4-2.1765-3.7698-8.9193-2.3899-10.709 1.9104 8.319 7.0089 8.9193 2.3899 3.7698-2.1765z"/>
    <path d="m844.81 298.54 3.078-3.078h9.234l9.8496 4.617-9.8496 4.617h-9.234l-3.078-3.078z"/>
   </g>
   <g transform="matrix(.33676 0 0 .33676 614.21 426.53)" stroke-width=".3078px">
    <path d="m868.42 317.28 3.078-3.078v-9.234l-4.617-9.8496-4.617 9.8496v9.234l3.078 3.078z"/>
    <path d="m879.78 315.25 1.1266-4.2046-4.617-7.9969-8.9232-6.2215 0.92635 10.838 4.617 7.9969 4.2046 1.1266z"/>
    <path d="m852.48 315.25-1.1266-4.2046 4.617-7.9969 8.9232-6.2215-0.92635 10.838-4.617 7.9969-4.2046 1.1266z"/>
    <path d="m868.42 282.91 3.078 3.078v9.234l-4.617 9.8496-4.617-9.8496v-9.234l3.078-3.078z"/>
    <path d="m879.78 284.93 1.1266 4.2046-4.617 7.9969-8.9232 6.2215 0.92635-10.838 4.617-7.9969 4.2046-1.1266z"/>
    <path d="m852.48 284.93-1.1266 4.2046 4.617 7.9969 8.9232 6.2215-0.92635-10.838-4.617-7.9969-4.2046-1.1266z"/>
    <path d="m886.56 301.4-2.1765-3.7698-8.9193-2.3899-10.709 1.9104 8.319 7.0089 8.9193 2.3899 3.7698-2.1765z"/>
    <path d="m844.81 298.54 3.078-3.078h9.234l9.8496 4.617-9.8496 4.617h-9.234l-3.078-3.078z"/>
   </g>
   <g transform="matrix(.33676 0 0 .33676 623.21 423.53)" stroke-width=".3078px">
    <path d="m868.42 317.28 3.078-3.078v-9.234l-4.617-9.8496-4.617 9.8496v9.234l3.078 3.078z"/>
    <path d="m879.78 315.25 1.1266-4.2046-4.617-7.9969-8.9232-6.2215 0.92635 10.838 4.617 7.9969 4.2046 1.1266z"/>
    <path d="m852.48 315.25-1.1266-4.2046 4.617-7.9969 8.9232-6.2215-0.92635 10.838-4.617 7.9969-4.2046 1.1266z"/>
    <path d="m868.42 282.91 3.078 3.078v9.234l-4.617 9.8496-4.617-9.8496v-9.234l3.078-3.078z"/>
    <path d="m879.78 284.93 1.1266 4.2046-4.617 7.9969-8.9232 6.2215 0.92635-10.838 4.617-7.9969 4.2046-1.1266z"/>
    <path d="m852.48 284.93-1.1266 4.2046 4.617 7.9969 8.9232 6.2215-0.92635-10.838-4.617-7.9969-4.2046-1.1266z"/>
    <path d="m886.56 301.4-2.1765-3.7698-8.9193-2.3899-10.709 1.9104 8.319 7.0089 8.9193 2.3899 3.7698-2.1765z"/>
    <path d="m844.81 298.54 3.078-3.078h9.234l9.8496 4.617-9.8496 4.617h-9.234l-3.078-3.078z"/>
   </g>
  </g>
  <g transform="matrix(.31266 0 0 .31266 242.42 567.04)" fill-rule="evenodd">
   <path d="m892.61 686.93s-13.108-45.349-30-60c-7.9632-6.9064-30-10-30-10s27.183 2.2814 36 7c14.484 15.539 23.757 40.915 34 63z" stroke-width="1px"/>
   <path d="m891.71 691.12s-0.92367-47.196-13.449-65.72c-5.9043-8.7321-26.39-17.424-26.39-17.424s25.667 9.2392 32.962 16.079c9.9686 18.758 12.358 45.67 16.536 69.653z" stroke-width="1px"/>
   <path d="m891.66 681.86s-0.92021-66.873-13.398-93.119c-5.8822-12.373-26.291-24.688-26.291-24.688s25.57 13.091 32.838 22.782c9.9312 26.579 12.312 64.709 16.474 98.691z" stroke-width="1.1881px"/>
   <path d="m902.99 694.86s0.92021-66.873 13.398-93.119c5.8822-12.373 26.291-24.688 26.291-24.688s-25.57 13.091-32.838 22.782c-9.9312 26.579-12.312 64.709-16.474 98.691z" stroke-width="1.1881px"/>
   <path d="m892.61 696.93 6-160-14-50 18 50v160z" stroke-width="1px"/>
   <g transform="matrix(.33676 0 0 .33676 619.21 433.53)" stroke-width=".3078px">
    <path d="m868.42 317.28 3.078-3.078v-9.234l-4.617-9.8496-4.617 9.8496v9.234l3.078 3.078z"/>
    <path d="m879.78 315.25 1.1266-4.2046-4.617-7.9969-8.9232-6.2215 0.92635 10.838 4.617 7.9969 4.2046 1.1266z"/>
    <path d="m852.48 315.25-1.1266-4.2046 4.617-7.9969 8.9232-6.2215-0.92635 10.838-4.617 7.9969-4.2046 1.1266z"/>
    <path d="m868.42 282.91 3.078 3.078v9.234l-4.617 9.8496-4.617-9.8496v-9.234l3.078-3.078z"/>
    <path d="m879.78 284.93 1.1266 4.2046-4.617 7.9969-8.9232 6.2215 0.92635-10.838 4.617-7.9969 4.2046-1.1266z"/>
    <path d="m852.48 284.93-1.1266 4.2046 4.617 7.9969 8.9232 6.2215-0.92635-10.838-4.617-7.9969-4.2046-1.1266z"/>
    <path d="m886.56 301.4-2.1765-3.7698-8.9193-2.3899-10.709 1.9104 8.319 7.0089 8.9193 2.3899 3.7698-2.1765z"/>
    <path d="m844.81 298.54 3.078-3.078h9.234l9.8496 4.617-9.8496 4.617h-9.234l-3.078-3.078z"/>
   </g>
   <g transform="matrix(.33676 0 0 .33676 614.21 426.53)" stroke-width=".3078px">
    <path d="m868.42 317.28 3.078-3.078v-9.234l-4.617-9.8496-4.617 9.8496v9.234l3.078 3.078z"/>
    <path d="m879.78 315.25 1.1266-4.2046-4.617-7.9969-8.9232-6.2215 0.92635 10.838 4.617 7.9969 4.2046 1.1266z"/>
    <path d="m852.48 315.25-1.1266-4.2046 4.617-7.9969 8.9232-6.2215-0.92635 10.838-4.617 7.9969-4.2046 1.1266z"/>
    <path d="m868.42 282.91 3.078 3.078v9.234l-4.617 9.8496-4.617-9.8496v-9.234l3.078-3.078z"/>
    <path d="m879.78 284.93 1.1266 4.2046-4.617 7.9969-8.9232 6.2215 0.92635-10.838 4.617-7.9969 4.2046-1.1266z"/>
    <path d="m852.48 284.93-1.1266 4.2046 4.617 7.9969 8.9232 6.2215-0.92635-10.838-4.617-7.9969-4.2046-1.1266z"/>
    <path d="m886.56 301.4-2.1765-3.7698-8.9193-2.3899-10.709 1.9104 8.319 7.0089 8.9193 2.3899 3.7698-2.1765z"/>
    <path d="m844.81 298.54 3.078-3.078h9.234l9.8496 4.617-9.8496 4.617h-9.234l-3.078-3.078z"/>
   </g>
   <g transform="matrix(.33676 0 0 .33676 623.21 423.53)" stroke-width=".3078px">
    <path d="m868.42 317.28 3.078-3.078v-9.234l-4.617-9.8496-4.617 9.8496v9.234l3.078 3.078z"/>
    <path d="m879.78 315.25 1.1266-4.2046-4.617-7.9969-8.9232-6.2215 0.92635 10.838 4.617 7.9969 4.2046 1.1266z"/>
    <path d="m852.48 315.25-1.1266-4.2046 4.617-7.9969 8.9232-6.2215-0.92635 10.838-4.617 7.9969-4.2046 1.1266z"/>
    <path d="m868.42 282.91 3.078 3.078v9.234l-4.617 9.8496-4.617-9.8496v-9.234l3.078-3.078z"/>
    <path d="m879.78 284.93 1.1266 4.2046-4.617 7.9969-8.9232 6.2215 0.92635-10.838 4.617-7.9969 4.2046-1.1266z"/>
    <path d="m852.48 284.93-1.1266 4.2046 4.617 7.9969 8.9232 6.2215-0.92635-10.838-4.617-7.9969-4.2046-1.1266z"/>
    <path d="m886.56 301.4-2.1765-3.7698-8.9193-2.3899-10.709 1.9104 8.319 7.0089 8.9193 2.3899 3.7698-2.1765z"/>
    <path d="m844.81 298.54 3.078-3.078h9.234l9.8496 4.617-9.8496 4.617h-9.234l-3.078-3.078z"/>
   </g>
  </g>
  <g transform="matrix(.31266 0 0 .31266 386.38 531.88)" fill-rule="evenodd">
   <path d="m892.61 686.93s-13.108-45.349-30-60c-7.9632-6.9064-30-10-30-10s27.183 2.2814 36 7c14.484 15.539 23.757 40.915 34 63z" stroke-width="1px"/>
   <path d="m891.71 691.12s-0.92367-47.196-13.449-65.72c-5.9043-8.7321-26.39-17.424-26.39-17.424s25.667 9.2392 32.962 16.079c9.9686 18.758 12.358 45.67 16.536 69.653z" stroke-width="1px"/>
   <path d="m891.66 681.86s-0.92021-66.873-13.398-93.119c-5.8822-12.373-26.291-24.688-26.291-24.688s25.57 13.091 32.838 22.782c9.9312 26.579 12.312 64.709 16.474 98.691z" stroke-width="1.1881px"/>
   <path d="m902.99 694.86s0.92021-66.873 13.398-93.119c5.8822-12.373 26.291-24.688 26.291-24.688s-25.57 13.091-32.838 22.782c-9.9312 26.579-12.312 64.709-16.474 98.691z" stroke-width="1.1881px"/>
   <path d="m892.61 696.93 6-160-14-50 18 50v160z" stroke-width="1px"/>
   <g transform="matrix(.33676 0 0 .33676 619.21 433.53)" stroke-width=".3078px">
    <path d="m868.42 317.28 3.078-3.078v-9.234l-4.617-9.8496-4.617 9.8496v9.234l3.078 3.078z"/>
    <path d="m879.78 315.25 1.1266-4.2046-4.617-7.9969-8.9232-6.2215 0.92635 10.838 4.617 7.9969 4.2046 1.1266z"/>
    <path d="m852.48 315.25-1.1266-4.2046 4.617-7.9969 8.9232-6.2215-0.92635 10.838-4.617 7.9969-4.2046 1.1266z"/>
    <path d="m868.42 282.91 3.078 3.078v9.234l-4.617 9.8496-4.617-9.8496v-9.234l3.078-3.078z"/>
    <path d="m879.78 284.93 1.1266 4.2046-4.617 7.9969-8.9232 6.2215 0.92635-10.838 4.617-7.9969 4.2046-1.1266z"/>
    <path d="m852.48 284.93-1.1266 4.2046 4.617 7.9969 8.9232 6.2215-0.92635-10.838-4.617-7.9969-4.2046-1.1266z"/>
    <path d="m886.56 301.4-2.1765-3.7698-8.9193-2.3899-10.709 1.9104 8.319 7.0089 8.9193 2.3899 3.7698-2.1765z"/>
    <path d="m844.81 298.54 3.078-3.078h9.234l9.8496 4.617-9.8496 4.617h-9.234l-3.078-3.078z"/>
   </g>
   <g transform="matrix(.33676 0 0 .33676 614.21 426.53)" stroke-width=".3078px">
    <path d="m868.42 317.28 3.078-3.078v-9.234l-4.617-9.8496-4.617 9.8496v9.234l3.078 3.078z"/>
    <path d="m879.78 315.25 1.1266-4.2046-4.617-7.9969-8.9232-6.2215 0.92635 10.838 4.617 7.9969 4.2046 1.1266z"/>
    <path d="m852.48 315.25-1.1266-4.2046 4.617-7.9969 8.9232-6.2215-0.92635 10.838-4.617 7.9969-4.2046 1.1266z"/>
    <path d="m868.42 282.91 3.078 3.078v9.234l-4.617 9.8496-4.617-9.8496v-9.234l3.078-3.078z"/>
    <path d="m879.78 284.93 1.1266 4.2046-4.617 7.9969-8.9232 6.2215 0.92635-10.838 4.617-7.9969 4.2046-1.1266z"/>
    <path d="m852.48 284.93-1.1266 4.2046 4.617 7.9969 8.9232 6.2215-0.92635-10.838-4.617-7.9969-4.2046-1.1266z"/>
    <path d="m886.56 301.4-2.1765-3.7698-8.9193-2.3899-10.709 1.9104 8.319 7.0089 8.9193 2.3899 3.7698-2.1765z"/>
    <path d="m844.81 298.54 3.078-3.078h9.234l9.8496 4.617-9.8496 4.617h-9.234l-3.078-3.078z"/>
   </g>
   <g transform="matrix(.33676 0 0 .33676 623.21 423.53)" stroke-width=".3078px">
    <path d="m868.42 317.28 3.078-3.078v-9.234l-4.617-9.8496-4.617 9.8496v9.234l3.078 3.078z"/>
    <path d="m879.78 315.25 1.1266-4.2046-4.617-7.9969-8.9232-6.2215 0.92635 10.838 4.617 7.9969 4.2046 1.1266z"/>
    <path d="m852.48 315.25-1.1266-4.2046 4.617-7.9969 8.9232-6.2215-0.92635 10.838-4.617 7.9969-4.2046 1.1266z"/>
    <path d="m868.42 282.91 3.078 3.078v9.234l-4.617 9.8496-4.617-9.8496v-9.234l3.078-3.078z"/>
    <path d="m879.78 284.93 1.1266 4.2046-4.617 7.9969-8.9232 6.2215 0.92635-10.838 4.617-7.9969 4.2046-1.1266z"/>
    <path d="m852.48 284.93-1.1266 4.2046 4.617 7.9969 8.9232 6.2215-0.92635-10.838-4.617-7.9969-4.2046-1.1266z"/>
    <path d="m886.56 301.4-2.1765-3.7698-8.9193-2.3899-10.709 1.9104 8.319 7.0089 8.9193 2.3899 3.7698-2.1765z"/>
    <path d="m844.81 298.54 3.078-3.078h9.234l9.8496 4.617-9.8496 4.617h-9.234l-3.078-3.078z"/>
   </g>
  </g>
 </g>
</svg>
